<svg width="19" height="19" viewBox="0 0 19 19" fill="none" xmlns="http://www.w3.org/2000/svg">
<path d="M18.9391 14.5707C18.894 14.3011 18.7194 14.0707 18.4577 13.9338L14.5873 11.7273L14.5554 11.7101C14.3931 11.6315 14.2139 11.5912 14.0324 11.5925C13.7082 11.5925 13.3985 11.7114 13.1836 11.9198L12.0412 13.0257C11.9923 13.0706 11.833 13.1357 11.7847 13.138C11.7715 13.137 10.4555 13.0453 8.03277 10.7009C5.61439 8.36143 5.51179 7.08421 5.51098 7.08421C5.51233 7.0189 5.57875 6.86528 5.626 6.81774L6.60016 5.87543C6.94333 5.5426 7.0462 4.99086 6.84262 4.56346L4.69126 0.646623C4.53493 0.33522 4.23118 0.142944 3.89422 0.142944C3.65581 0.142944 3.42577 0.23856 3.24595 0.412287L0.590511 2.97588C0.335901 3.22093 0.116662 3.64937 0.0688716 3.99421C0.0456517 4.15905 -0.425497 8.09392 5.14999 13.4894C9.88335 18.0687 13.5742 18.4246 14.5935 18.4246C14.7176 18.4261 14.8417 18.4199 14.965 18.406C15.3203 18.36 15.7626 18.1484 16.0156 17.9031L18.6689 15.3361C18.8854 15.1256 18.9842 14.8473 18.9391 14.5707Z" fill="white"/>
</svg>
