<svg width="22" height="23" viewBox="0 0 22 23" fill="none" xmlns="http://www.w3.org/2000/svg">
<path d="M11 0C4.928 0 0 5.152 0 11.5C0 17.848 4.928 23 11 23H16.5V20.7H11C6.226 20.7 2.2 16.491 2.2 11.5C2.2 6.509 6.226 2.3 11 2.3C15.774 2.3 19.8 6.509 19.8 11.5V13.1445C19.8 14.053 19.019 14.95 18.15 14.95C17.281 14.95 16.5 14.053 16.5 13.1445V11.5C16.5 8.326 14.036 5.75 11 5.75C7.964 5.75 5.5 8.326 5.5 11.5C5.5 14.674 7.964 17.25 11 17.25C12.518 17.25 13.904 16.606 14.894 15.5595C15.609 16.583 16.841 17.25 18.15 17.25C20.317 17.25 22 15.41 22 13.1445V11.5C22 5.152 17.072 0 11 0ZM11 14.95C9.174 14.95 7.7 13.409 7.7 11.5C7.7 9.591 9.174 8.05 11 8.05C12.826 8.05 14.3 9.591 14.3 11.5C14.3 13.409 12.826 14.95 11 14.95Z" fill="white"/>
</svg>
