<svg width="41" height="13" viewBox="0 0 41 13" fill="none" xmlns="http://www.w3.org/2000/svg">
<path d="M37.2727 5.57143C33.5455 5.57143 31.6818 0 26.0909 0C20.5 0 20.5 3.71429 20.5 3.71429C20.5 3.71429 20.5 0 14.9091 0C9.31818 0 7.45455 5.57143 3.72727 5.57143C1.86364 5.57143 0 3.71429 0 3.71429C0 3.71429 1.86364 13 9.31818 13C18.6364 13 20.5 7.42857 20.5 7.42857C20.5 7.42857 22.3636 13 31.6818 13C39.1364 13 41 3.71429 41 3.71429C41 3.71429 39.1364 5.57143 37.2727 5.57143Z" fill="#BB9D65"/>
</svg>
