<svg width="24" height="19" viewBox="0 0 24 19" fill="none" xmlns="http://www.w3.org/2000/svg">
<path d="M23.4975 2.82576C23.3616 2.28043 23.0969 1.78672 22.7316 1.39711C22.3559 0.995514 21.8955 0.708245 21.3937 0.562415C19.516 0.00557824 11.993 0.00557837 11.993 0.00557837C8.85676 -0.0345671 5.72128 0.142003 2.60427 0.534292C2.10252 0.690896 1.64296 0.984583 1.26645 1.38923C0.896497 1.78971 0.628533 2.28355 0.488551 2.82463C0.15229 4.86271 -0.0110893 6.93211 0.0006171 9.00496C-0.0113813 11.0759 0.151597 13.1447 0.488551 15.1853C0.625533 15.7241 0.892497 16.2157 1.26345 16.6128C1.6344 17.0099 2.09634 17.2968 2.60427 17.4486C4.50701 18.0043 11.993 18.0043 11.993 18.0043C15.1332 18.0445 18.2727 17.868 21.3937 17.4756C21.8955 17.3298 22.3559 17.0425 22.7316 16.6409C23.1015 16.2438 23.3645 15.75 23.4965 15.2123C23.8415 13.175 24.0093 11.1047 23.9974 9.03083C24.0233 6.94815 23.8558 4.86813 23.4975 2.82463V2.82576ZM9.60133 12.8567V5.15435L15.8605 9.00608L9.60133 12.8567Z" fill="white"/>
</svg>
